@startuml

' 如果非视网膜屏，可以注释掉这一行
' skinparam dpi 300

' 定义库关键字
!define Database(name) package name <<Rectangle>>
' 定义表关键字，包括了表名和描述
!define Table(name, do_name, comment) class name as "name\ncomment" << (T,#FFAAAA) >>

' 使用下划线表示不能为null
!define not_null(x) <u>x</u>
' 默认值
!define default(x) <color:gray>default x</color>

!define not_null <color:gray>not null</color>

' 字段类型定义，灰色表示
!define boolean <color:gray>boolean</color>
!define tinyint <color:gray>tinyint</color>
!define tinyint_unsigned <color:gray>tinyint_unsigned</color>
!define smallint <color:gray>smallint</color>
!define smallint_unsigned <color:gray>smallint_unsigned</color>
!define int <color:gray>int</color>
!define int_unsigned <color:gray>int_unsigned</color>
!define bigint <color:gray>bigint</color>
!define bigint_unsigned <color:gray>bigint_unsigned</color>
!define decimal <color:gray>decimal</color>
!define date <color:gray>date</color>
!define datetime <color:gray>datetime</color>
!define timestamp <color:gray>timestamp</color>
!define blob <color:gray>blob</color>
!define text <color:gray>text</color>
!define json <color:gray>json</color>
!define varchar(x) <color:gray>varchar[x]</color>

' 注释，斜体表示
!define comment(x) //x//

' 隐藏图标
hide circle

' 使用直角折线
skinparam linetype ortho

Database(iam) #EFFBEF {

    Table(idn_user, user, 用户) {
        id int_unsigned not_null primary key <<AUTO_INCREMENT>> <<ID>>
        gmt_create datetime default(CURRENT_TIMESTAMP)
        gmt_modified datetime default(CURRENT_TIMESTAMP) <<TIMESTAMP>>
        email varchar(50) not_null comment(邮箱)
        passwd varchar(50) not_null comment(加密后的密码)
        phone varchar(50) comment(手机号)
        profile json comment(概况信息)
        oauth json comment(oauth信息)
        saml json comment(saml信息)
        extension json comment(扩展信息)
        version smallint_unsigned not_null default(0) comment(乐观锁版本号)
        --
        unique key uk_email (email)
        --扩展属性--
        profile.nick String comment(昵称)
        profile.avatar String comment(头像)
        extension.emailVerified Boolean comment(邮箱已认证)
        oauth.oauthType String comment(oAuth渠道类型)
        oauth.oauthId String comment(oAuthId)
        oauth.oauthAccessToken String comment(accessToken)
        oauth.oauthExpireTime String comment(过期时间)
        saml.samlApiKey String comment(api_key)
        saml.samlApiSecret String comment(api_secret)
    }

    Table(idn_role, role, 角色) {
        id int_unsigned not_null primary key <<AUTO_INCREMENT>> <<ID>>
        gmt_create datetime default(CURRENT_TIMESTAMP)
        gmt_modified datetime default(CURRENT_TIMESTAMP) <<TIMESTAMP>>
        name varchar(50) not_null comment(角色名)
        biz_type varchar(50) not_null comment(外部业务类型)
        extension json comment(扩展信息)
        version smallint_unsigned not_null default(0) comment(乐观锁版本号)
        --
        unique key uk_name (biz_type, name) <<BK>>
        --扩展属性--
        extension.remark String comment(角色描述)
    }

    Table(idn_permission, permission, 权限) {
        id int_unsigned not_null primary key <<AUTO_INCREMENT>> <<ID>>
        gmt_create datetime default(CURRENT_TIMESTAMP)
        gmt_modified datetime default(CURRENT_TIMESTAMP) <<TIMESTAMP>>
        name varchar(50) not_null comment(角色名)
        biz_type varchar(50) not_null comment(外部业务类型)
        extension json comment(扩展信息)
        version smallint_unsigned not_null default(0) comment(乐观锁版本号)
        --
        unique key uk_name (biz_type, name) <<BK>>
        --扩展属性--
        extension.remark String comment(权限描述)
    }

    Table(idn_user_role_rel, user_role_rel, 用户和角色的关系) {
        id int_unsigned not_null primary key <<AUTO_INCREMENT>>
        gmt_create datetime default(CURRENT_TIMESTAMP)
        gmt_modified datetime default(CURRENT_TIMESTAMP) <<TIMESTAMP>>
        uid int_unsigned not_null comment(用户ID)
        role_id int_unsigned not_null comment(角色ID)
        biz_type varchar(50) not_null comment(外部业务类型)
        biz_id varchar(100) not_null comment(外部业务ID)
        extension json comment(扩展信息)
        attribute json comment(属性信息)
        version smallint_unsigned not_null default(0) comment(乐观锁版本号)
        --
        unique key uk_bind (biz_type, biz_id, role_id, uid) <<BK>>
        index idx_user (uid, biz_type)
        --扩展属性--
        extension.operatorUid Long comment(授予角色的操作人)
    }

    Table(idn_role_permission_rel, role_permission_rel, 角色和权限的关系) {
        id int_unsigned not_null primary key <<AUTO_INCREMENT>>
        gmt_create datetime default(CURRENT_TIMESTAMP)
        gmt_modified datetime default(CURRENT_TIMESTAMP) <<TIMESTAMP>>
        role_id int_unsigned not_null comment(角色ID)
        permission_id int_unsigned not_null comment(权限ID)
        biz_type varchar(50) not_null comment(外部业务类型)
        extension json comment(扩展信息)
        version smallint_unsigned not_null default(0) comment(乐观锁版本号)
        --
        unique key uk_bind (biz_type, role_id, permission_id) <<BK>>
        --扩展属性--
    }
}

idn_user "1" --> "N" idn_user_role_rel
idn_role "1" --> "N" idn_user_role_rel
idn_role "1" --> "N" idn_role_permission_rel
idn_permission "1" --> "N" idn_role_permission_rel
@enduml